<?xml version="1.0" encoding="utf-8"?>
<!-- Generator: Adobe Illustrator 16.0.3, SVG Export Plug-In . SVG Version: 6.00 Build 0)  -->
<!DOCTYPE svg PUBLIC "-//W3C//DTD SVG 1.1//EN" "http://www.w3.org/Graphics/SVG/1.1/DTD/svg11.dtd">
<svg version="1.1" id="Layer_1" xmlns="http://www.w3.org/2000/svg" xmlns:xlink="http://www.w3.org/1999/xlink" x="0px" y="0px"
	 width="612px" height="792px" viewBox="0 0 612 792" enable-background="new 0 0 612 792" xml:space="preserve">
<polygon id="polygon39" fill="#079948" stroke="#0F79AC" stroke-width="1.7008" stroke-linejoin="round" stroke-miterlimit="3.8637" points="
	214.618,293.588 214.493,292.35 214.571,292.014 215.59,287.763 215.534,285.439 215.249,284.625 214.118,283.215 211.518,279.973 
	209.221,276.428 205.776,272.298 205.217,271.708 202.965,269.332 202.045,267.879 201.641,265.787 201.184,263.812 
	199.922,261.486 199.692,259.104 199.266,257.797 197.569,252.596 197.231,246.439 196.542,244.057 196.862,243.242 
	197.346,242.025 197.348,239.76 198.676,234.068 198.776,233.896 202.821,227.104 202.965,227.033 206.047,225.539 212.016,225.854 
	212.836,225.897 216.459,227.297 218.014,227.59 221.924,230.21 224.167,230.504 226.524,231.67 228.422,231.209 232.676,234.063 
	235.204,236.102 235.776,237.613 236.411,238.08 237.561,238.197 237.499,240.463 237.958,241.626 246.864,247.164 247.725,247.282 
	249.221,247.46 257.147,252.824 258.124,253.465 260.012,256.084 261.393,257.191 263,257.254 264.608,258.246 266.104,258.541 
	267.022,259.183 269.143,262.383 270.692,263.086 277.137,260.955 279.034,260.961 282.94,262.543 284.836,262.665 288.452,264.652 
	289.774,264.541 292.19,264.781 296.092,266.48 300,267.365 302.754,268.712 305.108,269.186 307.402,270.53 308.723,271.465 
	310.617,271.938 314.402,273.986 316.469,275.098 318.014,276.44 319.105,276.328 320.256,276.856 324.438,280.069 326.91,280.313 
	327.426,280.373 331.494,283.527 332.525,283.939 333.305,284.308 340.168,287.564 342.791,288.809 345.719,289.635 
	347.379,290.747 349.842,292.154 351.002,293.588 351.672,294.37 354.936,296.826 357.342,297.594 359.635,299.291 361.234,300.52 
	363.518,303.727 365.697,304.725 368.098,306.828 370.16,307.828 372.275,309.758 378.904,316.242 379.498,316.99 380.158,317.818 
	382.434,322.014 383.463,322.775 384.887,324.758 386.377,325.348 388.547,327.394 390.369,330.193 390.871,332.693 
	389.004,338.085 388.65,340.291 389.555,342.735 389.137,345.289 389.879,346.514 389.58,348.254 388.752,353.304 388.777,359.402 
	389.512,361.207 390.197,361.851 392.432,362.445 393.066,361.346 393.701,361.059 394.615,361.529 395.48,361.602 396.105,361.654 
	397.031,360.633 397.258,360.384 397.459,360.365 399.039,360.221 400.422,358.893 401.338,358.898 402.881,360.419 
	403.623,360.424 403.688,359.553 405.486,359.609 406.039,359.627 407.135,358.82 408.793,359.527 409.881,359.36 410.479,359.891 
	410.738,360.122 413.629,365.775 415.943,371.89 415.816,373.632 415.002,375.834 415.096,379.088 415.418,382.924 416.141,384.561 
	416.549,385.486 418.031,387.182 420.318,387.371 423.008,388.203 423.578,389.079 423.443,391.924 424.01,393.147 426.75,395.025 
	432.553,401.05 437.234,403.756 437.988,404.396 438.543,404.869 440.543,405.58 442.771,406.991 445.744,407.594 448.77,409.476 
	451.627,409.904 454.363,412.074 455.377,414.754 454.611,417.594 453.047,420.255 451.988,424.476 451.926,424.719 
	448.412,428.119 444.887,432.508 441.318,435.561 438.73,437.109 435.332,440.57 428.342,445.129 427.402,445.742 422.445,451.227 
	416.928,455.254 413.932,458.371 411.578,460.099 410.479,460.57 403.264,463.661 402.229,464.104 392.197,467.644 388.867,470.295 
	383.59,472.877 379.168,476.569 375.422,477.67 371.209,478.906 368.92,479.068 364.797,480.672 359.648,481.051 356.275,480.395 
	353.594,479.103 350.451,478.854 348.453,477.973 346.107,478.077 345.109,478.565 343.988,479.112 339.695,480.254 335.449,484.01 
	330.695,486.311 329.949,487.004 327.584,491.758 326.037,493.202 320.484,495.851 320.119,495.926 318.021,496.362 
	311.094,499.819 308.971,502.831 307.309,504.335 305.702,506.478 303.983,507.865 301.006,509.189 297.12,509.698 293.631,510.905 
	290.37,512.288 289.68,512.982 289.624,514.318 288.815,516.871 287.1,517.389 286.299,517.618 281.942,523.063 279.711,525.031 
	279.018,526.307 279.35,531.535 278.543,534.728 276.936,537.859 273.157,541.682 272.635,543.74 272.409,544.642 270.627,547.83 
	268.731,553.285 267.762,553.979 264.965,553.506 262.899,557.508 256.895,564.52 253.917,566.541 252.209,567.703 250.27,568.162 
	249.411,567.928 248.958,566.648 249.481,562.584 248.969,561.48 243.667,558.098 240.708,554.839 238.368,553.439 234.6,552.851 
	232.028,551.885 231.176,551.566 228.557,549.76 222.739,544.639 221.141,543.881 216.801,543.002 212.639,541.078 204.229,538.215 
	203.389,537.93 201.793,536.418 199.913,531.07 198.03,527.643 195.176,524.096 193.979,520.9 193.067,514.857 193.182,511.605 
	194.196,510.082 194.729,509.283 193.471,506.959 193.417,505.971 194.618,504.113 195.249,502.197 195.075,500.047 
	196.506,496.215 196.336,495.285 197.194,493.544 196.967,489.826 197.713,484.482 197.659,482.392 198.186,479.719 199.897,471.01 
	199.612,465.433 200.706,461.077 198.024,450.037 197.028,448.787 195.62,447.015 195.219,445.271 195.907,442.135 194.649,440.101 
	194.196,438.531 192.823,436.672 192.192,434.929 191.28,429.584 193.057,426.564 192.883,425.52 191.911,424.53 190.879,424.413 
	189.622,424.818 188.417,423.771 187.415,423.537 186.928,423.422 186.071,421.854 186.245,419.703 185.844,417.787 
	184.071,413.895 184.586,410.408 184.356,409.305 181.836,404.598 182.639,402.973 182.465,402.449 181.381,401.635 
	181.493,398.904 180.694,395.187 180.131,394.436 179.432,393.5 178.862,391.525 177.37,389.55 176.739,386.994 176.913,386.18 
	175.592,385.018 173.131,384.494 171.18,382.693 168.143,381.529 167.454,380.832 167.022,379.244 166.997,379.146 168.084,376.65 
	167.795,375.14 166.651,373.861 166.135,372.061 163.438,370.026 162.866,368.574 162.465,365.031 161.946,363.928 160.875,363.236 
	159.422,362.3 159.135,361.604 161.374,358.699 161.2,357.363 162.577,354.518 162.172,352.077 162.516,350.276 163.719,348.533 
	166.819,346.211 171.065,342.03 173.588,338.604 174.04,338.156 177.778,334.424 179.5,331.928 181.223,330.593 183.403,329.664 
	185.124,329.563 186.331,329.493 188.454,330.076 189.489,329.96 190.981,328.858 192.415,328.512 192.53,327.814 191.899,325.605 
	192.475,324.503 193.852,323.053 194.315,321.949 195.778,320.725 195.979,320.557 196.383,318.35 197.245,317.48 197.475,316.144 
	200.69,314.172 199.198,312.486 199.543,310.859 200.405,309.293 200.426,309.287 201.844,308.888 202.647,308.25 202.532,306.914 
	205,307.266 205,306.104 206.356,304.303 208.624,301.287 209.43,300.707 213.911,298.391 214.719,294.559 "/>
</svg>
