<?xml version="1.0" encoding="utf-8"?>
<!-- Generator: Adobe Illustrator 16.0.3, SVG Export Plug-In . SVG Version: 6.00 Build 0)  -->
<!DOCTYPE svg PUBLIC "-//W3C//DTD SVG 1.1//EN" "http://www.w3.org/Graphics/SVG/1.1/DTD/svg11.dtd">
<svg version="1.1" id="Layer_1" xmlns="http://www.w3.org/2000/svg" xmlns:xlink="http://www.w3.org/1999/xlink" x="0px" y="0px"
	 width="137px" height="137px" viewBox="0 0 137 137" enable-background="new 0 0 137 137" xml:space="preserve">
<polygon id="polygon39" fill="#079948" stroke="#0F79AC" stroke-width="1.7008" stroke-linejoin="round" stroke-miterlimit="3.8637" points="
	31.06,28.104 31.01,27.622 31.042,27.491 31.449,25.836 31.426,24.932 31.312,24.614 30.86,24.065 29.822,22.803 28.904,21.422 
	27.528,19.814 27.305,19.585 26.405,18.66 26.037,18.094 25.875,17.28 25.693,16.51 25.189,15.605 25.097,14.678 24.927,14.168 
	24.249,12.144 24.114,9.746 23.838,8.818 23.966,8.501 24.16,8.027 24.16,7.146 24.691,4.929 24.731,4.863 26.347,2.217 
	26.405,2.19 27.636,1.608 30.021,1.731 30.349,1.749 31.796,2.293 32.417,2.407 33.979,3.427 34.875,3.542 35.817,3.996 
	36.575,3.816 38.275,4.928 39.285,5.721 39.514,6.31 39.767,6.492 40.227,6.537 40.202,7.419 40.385,7.873 43.943,10.028 
	44.288,10.075 44.885,10.143 48.052,12.232 48.441,12.482 49.196,13.502 49.748,13.932 50.39,13.957 51.033,14.343 51.63,14.458 
	51.997,14.708 52.845,15.953 53.463,16.228 56.039,15.397 56.795,15.4 58.357,16.017 59.114,16.064 60.559,16.838 61.087,16.794 
	62.052,16.888 63.611,17.549 65.172,17.894 66.272,18.418 67.212,18.603 68.129,19.126 68.657,19.49 69.414,19.674 70.926,20.472 
	71.752,20.905 72.369,21.428 72.806,21.384 73.265,21.589 74.936,22.841 75.923,22.935 76.129,22.958 77.754,24.187 78.166,24.347 
	78.479,24.491 81.22,25.759 82.269,26.244 83.438,26.564 84.101,26.999 85.085,27.545 85.549,28.104 85.816,28.408 87.12,29.365 
	88.082,29.664 88.997,30.325 89.638,30.803 90.549,32.051 91.42,32.441 92.379,33.259 93.203,33.648 94.049,34.4 96.697,36.925 
	96.934,37.216 97.197,37.538 98.106,39.172 98.518,39.468 99.086,40.241 99.682,40.47 100.549,41.267 101.276,42.357 
	101.478,43.331 100.731,45.429 100.59,46.289 100.951,47.24 100.784,48.234 101.081,48.712 100.962,49.389 100.631,51.354 
	100.641,53.729 100.935,54.432 101.208,54.683 102.101,54.915 102.354,54.486 102.607,54.375 102.974,54.558 103.319,54.585 
	103.569,54.607 103.938,54.209 104.028,54.112 104.109,54.104 104.74,54.048 105.294,53.531 105.658,53.534 106.275,54.125 
	106.572,54.127 106.598,53.788 107.316,53.81 107.537,53.817 107.975,53.503 108.638,53.777 109.071,53.713 109.311,53.92 
	109.414,54.01 110.57,56.21 111.495,58.591 111.444,59.27 111.118,60.128 111.155,61.395 111.284,62.889 111.573,63.525 
	111.736,63.886 112.329,64.546 113.242,64.62 114.316,64.944 114.544,65.285 114.491,66.393 114.717,66.869 115.812,67.6 
	118.13,69.945 120,70.999 120.301,71.249 120.523,71.433 121.322,71.711 122.213,72.26 123.399,72.493 124.609,73.226 
	125.75,73.394 126.844,74.238 127.249,75.281 126.942,76.387 126.318,77.423 125.895,79.067 125.87,79.161 124.467,80.485 
	123.057,82.194 121.632,83.383 120.599,83.985 119.241,85.333 116.447,87.107 116.071,87.347 114.093,89.482 111.887,91.05 
	110.691,92.265 109.75,92.937 109.311,93.12 106.428,94.324 106.015,94.497 102.008,95.876 100.677,96.907 98.568,97.913 
	96.802,99.351 95.305,99.779 93.622,100.261 92.707,100.322 91.06,100.947 89.003,101.094 87.655,100.839 86.584,100.336 
	85.328,100.239 84.53,99.897 83.594,99.937 83.195,100.127 82.747,100.341 81.031,100.784 79.336,102.246 77.436,103.144 
	77.138,103.414 76.193,105.264 75.575,105.825 73.355,106.858 73.211,106.888 72.373,107.058 69.604,108.402 68.756,109.575 
	68.092,110.161 67.45,110.996 66.764,111.535 65.574,112.051 64.021,112.249 62.628,112.72 61.325,113.257 61.049,113.527 
	61.027,114.048 60.703,115.043 60.019,115.244 59.699,115.332 57.958,117.452 57.067,118.219 56.79,118.716 56.922,120.751 
	56.6,121.995 55.958,123.215 54.448,124.702 54.24,125.505 54.149,125.854 53.437,127.096 52.68,129.221 52.292,129.49 
	51.175,129.306 50.349,130.864 47.951,133.595 46.761,134.381 46.079,134.834 45.304,135.013 44.961,134.921 44.78,134.423 
	44.989,132.841 44.784,132.411 42.666,131.094 41.483,129.825 40.549,129.28 39.043,129.053 38.016,128.675 37.675,128.551 
	36.629,127.848 34.305,125.853 33.667,125.56 31.933,125.216 30.27,124.466 26.91,123.353 26.575,123.241 25.937,122.653 
	25.186,120.571 24.433,119.235 23.293,117.854 22.814,116.611 22.45,114.259 22.496,112.991 22.901,112.399 23.114,112.086 
	22.612,111.183 22.59,110.798 23.07,110.074 23.322,109.328 23.253,108.49 23.824,106.999 23.756,106.638 24.099,105.958 
	24.008,104.512 24.307,102.432 24.285,101.617 24.496,100.577 25.179,97.187 25.065,95.014 25.502,93.317 24.431,89.021 
	24.033,88.533 23.47,87.843 23.31,87.163 23.585,85.942 23.083,85.149 22.901,84.54 22.353,83.815 22.101,83.137 21.736,81.056 
	22.446,79.88 22.377,79.474 21.988,79.088 21.576,79.042 21.074,79.2 20.593,78.792 20.192,78.701 19.998,78.657 19.655,78.045 
	19.725,77.209 19.565,76.463 18.856,74.947 19.062,73.589 18.97,73.159 17.964,71.326 18.284,70.694 18.215,70.491 17.782,70.173 
	17.826,69.11 17.507,67.663 17.282,67.371 17.003,67.006 16.775,66.237 16.179,65.467 15.927,64.473 15.997,64.156 15.469,63.703 
	14.486,63.499 13.706,62.798 12.493,62.344 12.217,62.073 12.045,61.456 12.035,61.417 12.469,60.445 12.354,59.857 11.896,59.359 
	11.69,58.658 10.613,57.866 10.384,57.3 10.224,55.921 10.017,55.492 9.589,55.223 9.009,54.858 8.894,54.586 9.788,53.456 
	9.719,52.936 10.269,51.828 10.107,50.877 10.244,50.176 10.726,49.497 11.963,48.593 13.66,46.966 14.668,45.632 14.849,45.457 
	16.342,44.004 17.03,43.032 17.719,42.512 18.589,42.151 19.277,42.111 19.759,42.084 20.607,42.311 21.021,42.266 21.617,41.836 
	22.189,41.702 22.235,41.431 21.983,40.57 22.214,40.141 22.764,39.577 22.949,39.147 23.534,38.67 23.614,38.605 23.775,37.745 
	24.12,37.407 24.211,36.886 25.496,36.119 24.9,35.462 25.038,34.829 25.382,34.22 25.391,34.217 25.957,34.062 26.278,33.813 
	26.232,33.293 27.218,33.43 27.218,32.977 27.759,32.276 28.666,31.102 28.987,30.876 30.778,29.974 31.101,28.482 "/>
</svg>
