<?xml version="1.0" encoding="utf-8"?>
<!-- Generator: Adobe Illustrator 16.0.3, SVG Export Plug-In . SVG Version: 6.00 Build 0)  -->
<!DOCTYPE svg PUBLIC "-//W3C//DTD SVG 1.1//EN" "http://www.w3.org/Graphics/SVG/1.1/DTD/svg11.dtd">
<svg version="1.1" id="Layer_1" xmlns="http://www.w3.org/2000/svg" xmlns:xlink="http://www.w3.org/1999/xlink" x="0px" y="0px"
	 width="612px" height="792px" viewBox="0 0 612 792" enable-background="new 0 0 612 792" xml:space="preserve">
<polygon id="polygon11" fill="#179948" stroke="#0F79AC" stroke-width="1.7008" stroke-linejoin="round" stroke-miterlimit="3.8637" points="
	345.139,353.458 345.383,354.033 348.321,355.194 352.463,355.52 353.695,355.96 356.298,357.883 357.328,359.836 361.225,362.373 
	361.589,363.236 361.455,365.213 362.891,367.101 362.627,368.44 363.291,369.53 363.453,371.399 364.102,372.359 365.374,371.928 
	365.961,372.091 366.344,373.709 366.285,376.844 365.507,378.717 365.28,381.797 363.251,385.203 362.529,387.017 360.937,388.962 
	358.896,394.69 356.104,397.705 355.058,400.627 354.806,402.723 355.674,408.162 354.618,410.736 354.802,411.197 357.123,410.862 
	356.637,412.199 356.186,413.435 356.932,415.801 356.698,418.766 356.139,419.938 355.609,419.6 353.522,419.988 352.023,419.596 
	351.27,420.729 350.051,420.984 349.14,421.932 346.811,421.744 345.081,422.592 345.557,423.104 350.952,422.36 352.523,422.445 
	352.805,424.704 351.472,425.02 350.455,426.549 348.49,427.11 348.386,427.225 347.693,427.996 345.441,428.912 344.316,430.733 
	342.871,431.168 343.426,432.842 343.152,433.66 340.428,434.004 339.299,435.709 338.262,436.078 337.237,437.26 336.139,437.514 
	335.114,438.754 333.496,439.25 332.469,440.199 331.312,440.396 329.996,441.526 328.894,441.549 324.266,439.9 320.798,438.171 
	317.723,438.465 316.191,437.568 312.425,438.109 311.502,438.594 309.801,437.815 307.998,437.853 305.09,437.797 299.993,436.103 
	299.34,435.535 297.884,435.393 296.641,434.373 295.365,434.516 294.06,436.053 292.55,436.084 290.996,434.143 288.221,432.227 
	287.226,431.959 283.64,427.506 281.419,424.477 279.361,423.418 278.514,421.926 278.781,420.934 268.851,418.999 266.551,417.771 
	262.925,416.863 262.388,416.353 261.739,415.844 258.819,415.385 255.702,414.002 254.39,412.464 253.261,409.006 250.205,405.067 
	249.585,403.34 250.363,393.977 250.893,391.701 253.074,390.259 255.575,387.592 257.583,386.271 259.627,383.962 260.07,382.966 
	260.979,379.29 262.777,373.736 264.997,371.424 269.532,368.424 270.869,368.221 273.486,368.106 274.578,367.386 276.672,367.226 
	278.334,365.971 280.302,365.464 281.214,364.517 281.895,363.631 282.021,363.561 283.621,362.666 286.138,360.465 
	288.383,359.257 294.139,355.885 297.229,353.209 298.439,352.604 299.2,352.82 301.37,353.472 303.211,352.389 304.841,352.238 
	305.958,352.622 306.61,353.305 307.004,355.27 307.944,355.657 309.091,354.705 310.014,354.337 310.961,355.073 312.59,354.981 
	313.859,356.987 314.977,357.486 316.605,357.395 317.464,356.681 317.662,354.994 317.986,353.71 318.668,352.942 320.57,351.975 
	323.076,351.866 325.771,352.624 328.854,352.33 332.711,352.833 334.368,354.077 335.338,353.013 336.084,352.418 338.236,352.201 
	339.317,350.96 340.712,350.817 342.554,352.464 344.998,352.416 "/>
<rect id="_x3C_Slice_x3E_" x="238" y="345" fill="none" width="133" height="103"/>
</svg>
