<?xml version="1.0" encoding="utf-8"?>
<!-- Generator: Adobe Illustrator 16.0.3, SVG Export Plug-In . SVG Version: 6.00 Build 0)  -->
<!DOCTYPE svg PUBLIC "-//W3C//DTD SVG 1.1//EN" "http://www.w3.org/Graphics/SVG/1.1/DTD/svg11.dtd">
<svg version="1.1" id="Layer_1" xmlns="http://www.w3.org/2000/svg" xmlns:xlink="http://www.w3.org/1999/xlink" x="0px" y="0px"
	 width="137px" height="137px" viewBox="0 0 137 137" enable-background="new 0 0 137 137" xml:space="preserve">
<polygon id="polygon11" fill="#0E9A48" stroke="#147AAD" stroke-width="1.7008" stroke-linejoin="round" stroke-miterlimit="3.8637" points="
	110.694,19.051 110.975,19.726 114.324,21.088 119.046,21.471 120.451,21.987 123.418,24.243 124.594,26.535 129.037,29.512 
	129.451,30.524 129.3,32.844 130.936,35.06 130.636,36.63 131.394,37.909 131.577,40.103 132.316,41.229 133.768,40.724 
	134.438,40.914 134.874,42.813 134.808,46.491 133.92,48.689 133.661,52.303 131.348,56.3 130.523,58.428 128.71,60.71 
	126.382,67.431 123.197,70.969 122.005,74.397 121.719,76.856 122.707,83.239 121.503,86.26 121.715,86.8 124.36,86.407 
	123.805,87.976 123.291,89.426 124.142,92.202 123.875,95.681 123.238,97.056 122.634,96.659 120.254,97.115 118.545,96.654 
	117.687,97.983 116.296,98.284 115.256,99.396 112.602,99.176 110.63,100.17 111.172,100.771 117.323,99.898 119.115,99.998 
	119.437,102.648 117.916,103.019 116.758,104.813 114.517,105.472 114.398,105.606 113.607,106.512 111.041,107.586 
	109.757,109.723 108.11,110.233 108.743,112.197 108.43,113.157 105.324,113.561 104.037,115.562 102.854,115.994 101.686,117.381 
	100.434,117.679 99.265,119.134 97.42,119.716 96.249,120.83 94.931,121.062 93.428,122.387 92.172,122.413 86.896,120.479 
	82.94,118.45 79.434,118.795 77.688,117.743 73.394,118.378 72.341,118.946 70.402,118.033 68.346,118.076 65.03,118.011 
	59.219,116.023 58.475,115.357 56.814,115.189 55.397,113.994 53.942,114.161 52.454,115.965 50.732,116.001 48.961,113.724 
	45.796,111.475 44.662,111.161 40.573,105.936 38.041,102.382 35.694,101.14 34.729,99.389 35.033,98.225 23.71,95.954 
	21.087,94.514 16.953,93.448 16.341,92.85 15.601,92.252 12.271,91.714 8.718,90.091 7.222,88.286 5.935,84.229 2.45,79.607 
	1.743,77.581 2.629,66.595 3.234,63.924 5.721,62.232 8.573,59.103 10.862,57.553 13.193,54.843 13.698,53.674 14.734,49.361 
	16.785,42.844 19.316,40.132 24.487,36.611 26.011,36.374 28.995,36.239 30.24,35.394 32.628,35.206 34.523,33.734 36.767,33.139 
	37.807,32.027 38.583,30.988 38.727,30.906 40.551,29.855 43.421,27.273 45.981,25.855 52.544,21.899 56.068,18.759 57.447,18.049 
	58.314,18.302 60.789,19.068 62.888,17.797 64.747,17.62 66.021,18.07 66.764,18.872 67.213,21.177 68.285,21.632 69.593,20.515 
	70.646,20.083 71.725,20.946 73.582,20.838 75.029,23.192 76.304,23.777 78.16,23.671 79.14,22.833 79.366,20.854 79.735,19.347 
	80.513,18.446 82.682,17.312 85.538,17.184 88.611,18.073 92.127,17.728 96.524,18.318 98.414,19.778 99.52,18.529 100.371,17.831 
	102.824,17.577 104.058,16.12 105.647,15.952 107.747,17.885 110.535,17.829 "/>
</svg>
