<?xml version="1.0" encoding="utf-8"?>
<!-- Generator: Adobe Illustrator 16.0.3, SVG Export Plug-In . SVG Version: 6.00 Build 0)  -->
<!DOCTYPE svg PUBLIC "-//W3C//DTD SVG 1.1//EN" "http://www.w3.org/Graphics/SVG/1.1/DTD/svg11.dtd">
<svg version="1.1" id="Layer_1" xmlns="http://www.w3.org/2000/svg" xmlns:xlink="http://www.w3.org/1999/xlink" x="0px" y="0px"
	 width="612px" height="792px" viewBox="0 0 612 792" enable-background="new 0 0 612 792" xml:space="preserve">
<polygon id="polygon31" fill="#079948" stroke="#0F79AC" stroke-width="1.7008" stroke-linejoin="round" stroke-miterlimit="3.8637" points="
	291.625,371.781 294.805,371.589 296.485,371.987 298.68,372.382 301.69,372.773 303.192,372.881 304.807,372.466 311.115,374.292 
	315.109,375.55 318.842,378.159 321.664,380.919 325.961,384.616 327.818,386.176 331.303,390.226 335.373,395.899 336.947,399.377 
	337.305,401.408 336.793,403.095 332.951,408.629 330.781,413.343 329.635,414.742 325.42,414.936 320.588,417.861 318.623,418.045 
	317.127,418.982 315.631,419.279 314.994,419.051 313.094,420.162 309.918,420.12 306.231,420.662 303.459,420.676 301.729,421.092 
	300.633,420.923 299.877,420.289 297.764,418.508 296.165,416.939 295.407,415.607 293.764,410.797 293.663,407.844 
	293.555,404.525 293.999,401.735 293.872,399.471 292.93,396.92 288.854,391.31 287.055,390.042 279.987,386.365 277.717,383.532 
	276.776,381.099 277.104,378.135 277.786,376.041 278.934,375.163 280.612,374.863 281.073,375.093 282.795,373.34 284.698,372.517 
	287.067,372.271 "/>
<rect id="_x3C_Slice_x3E_" x="263" y="369" fill="none" width="80" height="55"/>
</svg>
