<?xml version="1.0" encoding="utf-8"?>
<!-- Generator: Adobe Illustrator 16.0.3, SVG Export Plug-In . SVG Version: 6.00 Build 0)  -->
<!DOCTYPE svg PUBLIC "-//W3C//DTD SVG 1.1//EN" "http://www.w3.org/Graphics/SVG/1.1/DTD/svg11.dtd">
<svg version="1.1" id="Layer_1" xmlns="http://www.w3.org/2000/svg" xmlns:xlink="http://www.w3.org/1999/xlink" x="0px" y="0px"
	 width="137px" height="137px" viewBox="0 0 137 137" enable-background="new 0 0 137 137" xml:space="preserve">
<polygon id="polygon31" fill="#079948" stroke="#0F79AC" stroke-width="1.7008" stroke-linejoin="round" stroke-miterlimit="3.8637" points="
	34.549,12.911 41.583,12.478 45.298,13.377 50.155,14.271 56.812,15.157 60.135,15.402 63.708,14.462 77.662,18.595 86.497,21.443 
	94.751,27.348 100.996,33.595 110.502,41.962 114.61,45.492 122.316,54.659 131.32,67.5 134.804,75.371 135.594,79.969 
	134.461,83.787 125.964,96.313 121.165,106.982 118.628,110.148 109.304,110.586 98.616,117.209 94.268,117.625 90.96,119.746 
	87.651,120.418 86.242,119.902 82.038,122.416 75.013,122.322 66.857,123.549 60.727,123.58 56.899,124.521 54.475,124.139 
	52.804,122.705 48.129,118.672 44.59,115.123 42.914,112.107 39.28,101.219 39.055,94.535 38.818,87.025 39.798,80.709 
	39.518,75.584 37.436,69.813 28.418,57.112 24.44,54.242 8.804,45.921 3.784,39.509 1.701,34.002 2.427,27.293 3.935,22.552 
	6.476,20.566 10.187,19.888 11.207,20.407 15.017,16.441 19.225,14.576 24.466,14.019 "/>
</svg>
