<?xml version="1.0" encoding="utf-8"?>
<!-- Generator: Adobe Illustrator 16.0.3, SVG Export Plug-In . SVG Version: 6.00 Build 0)  -->
<!DOCTYPE svg PUBLIC "-//W3C//DTD SVG 1.1//EN" "http://www.w3.org/Graphics/SVG/1.1/DTD/svg11.dtd">
<svg version="1.1" id="Layer_1" xmlns="http://www.w3.org/2000/svg" xmlns:xlink="http://www.w3.org/1999/xlink" x="0px" y="0px"
	 width="137px" height="137px" viewBox="0 0 137 137" enable-background="new 0 0 137 137" xml:space="preserve">
<polygon id="polygon29" fill="#079948" stroke="#0F79AC" stroke-width="1.7008" stroke-linejoin="round" stroke-miterlimit="3.8637" points="
	45.594,37.589 45.252,37.589 43.723,35.719 43.721,35.107 44.448,35.68 "/>
<polygon id="polygon33" fill="#079948" stroke="#0F79AC" stroke-width="1.7008" stroke-linejoin="round" stroke-miterlimit="3.8637" points="
	47.351,91.559 47.348,90.831 48.339,91.212 48.187,91.519 "/>
<polygon id="polygon35" fill="#079948" stroke="#0F79AC" stroke-width="1.7008" stroke-linejoin="round" stroke-miterlimit="3.8637" points="
	25.606,26.899 25.108,26.251 25.716,25.599 26.591,25.519 27.85,25.974 29.065,25.396 30.25,26.005 31.122,25.198 33.14,25.001 
	34.44,26.374 35.889,26.906 36.882,27.744 37.95,28.124 38.752,29.345 39.861,30.146 41.886,32.243 42.951,32.7 43.26,33.54 
	43.26,33.564 43.226,35.605 44.604,37.745 45.252,38.086 45.483,38.622 46.477,40.302 48.083,42.02 48.774,43.892 50.757,46.527 
	51.405,46.984 52.016,47.021 55.033,46.812 55.44,46.783 56.999,46.092 58.899,44.788 60.952,44.86 62.208,44.284 63.615,44.167 
	64.796,44.049 65.746,43.588 67.607,41.558 69.164,40.714 70.876,40.175 72.249,40.441 73.387,39.216 74.757,38.755 76.202,38.867 
	77.195,39.746 78.603,39.63 80.353,38.938 81.074,38.976 82.295,40.16 84.388,39.813 84.531,39.916 85.189,40.387 85.417,40.309 
	86.482,40.155 88.083,40.881 89.338,41.416 90.331,42.983 91.244,43.518 92.578,45.62 93.304,46.002 95.511,47.875 97.076,50.055 
	98.863,51.354 99.704,52.883 100.425,53.037 102.517,52.538 103.278,53.304 104.535,53.456 105.259,54.373 105.982,56.821 
	106.592,57.166 107.771,58.619 108.233,58.811 108.419,58.887 109.293,58.887 110.586,58.428 111.729,58.466 112.45,58.963 
	114.276,59.613 116.483,61.641 117.151,61.767 120.552,62.408 122.38,62.981 124.926,64.436 128.311,68.607 128.043,69.946 
	127.93,70.597 128.157,72.012 127.55,74.65 127.7,75.379 127.132,76.908 127.32,77.711 126.561,78.82 124.698,81.536 
	123.787,82.301 123.169,82.526 121.809,83.025 120.897,83.639 119.036,86.124 118.204,87.484 118.124,87.614 117.401,88.112 
	114.972,88.839 114.211,88.839 113.377,88.188 112.92,88.188 111.971,88.839 110.375,89.91 109.16,90.024 107.186,91.402 
	106.272,91.631 105.399,92.55 105.162,92.574 104.602,92.626 104.185,93.239 103.653,93.392 102.741,92.513 101.942,92.36 
	100.461,92.551 99.815,93.012 98.714,92.857 98.03,93.012 96.661,92.134 94.877,92.21 92.977,92.67 91.117,93.437 88.803,94.93 
	86.373,95.89 86.075,96.064 84.663,96.886 83.224,97.079 82.313,97.73 81.134,98.038 79.77,99.072 78.819,99.38 77.036,99.42 
	75.21,99.117 73.846,99.232 72.972,99.693 72.403,100.001 71.3,99.773 70.43,100.233 69.213,100.311 67.507,100.925 66.594,101.004 
	65.491,100.28 62.452,100.247 61.694,99.789 60.896,99.714 60.515,99.181 60.627,98.376 60.055,97.269 58.308,97.502 57.431,97.005 
	56.213,95.211 56.315,94.702 56.475,93.909 56.282,93.069 55.404,91.31 54.565,90.434 55.665,88.938 56.004,88.095 56.148,85.877 
	55.611,83.236 55.834,81.249 55.682,80.828 55.104,77.387 53.609,73.679 53.07,71.117 53.144,70.467 53.179,68.783 52.832,67.331 
	51.877,65.994 50.241,64.926 48.261,64.166 47.384,64.054 45.941,64.517 45.256,64.824 42.717,67.126 41.957,67.396 41.387,67.283 
	37.498,64.77 34.759,64.318 33.426,63.787 31.101,61.996 29.845,61.54 27.791,61.739 27.292,60.822 25.878,58.417 25,57.617 
	23.933,57.123 23.586,56.474 22.593,54.947 20.149,52.775 19.307,51.438 18.84,48.878 18.263,47.619 18.335,46.241 17.527,44.332 
	17.032,43.912 16.533,42.881 16.415,41.849 16.828,40.891 17.335,38.363 17.35,38.289 18.518,34.995 19.767,33.384 20.296,32.579 
	21.236,29.401 21.958,28.633 22.68,28.478 23.641,28.988 "/>
<polygon id="polygon37" fill="#079948" stroke="#0F79AC" stroke-width="1.7008" stroke-linejoin="round" stroke-miterlimit="3.8637" points="
	33.237,96.838 35.209,96.297 37.147,96.253 38.975,97.28 39.431,97.854 39.93,98.77 40.917,99.57 41.375,100.295 41.078,101.98 
	39.834,104.967 39.384,106.308 39.386,107.264 39.084,107.801 39.881,107.874 40.868,107.26 41.247,107.298 41.782,107.985 
	42.539,107.752 42.579,108.287 42.277,108.978 41.14,110.051 40.614,110.933 40.081,111.203 39.096,111.243 37.803,110.864 
	37.349,111.172 36.551,111.136 35.074,111.906 33.593,112.101 32.833,111.529 32.334,110.346 31.537,109.888 30.666,111.038 
	29.602,110.659 28.654,110.74 25.471,112.471 24.94,112.244 24.44,110.906 22.399,112.902 21.563,113.211 20.5,113.023 
	18.867,112.228 18.596,111.004 16.881,109.861 16.081,108.525 16.153,108.066 17.589,106.608 18.574,106.03 19.936,104.381 
	21.225,103.993 22.174,103.684 23.503,103.756 24.676,102.834 25.697,101.874 26.647,101.487 29.259,99.567 30.317,98.263 
	31.457,98.144 "/>
<rect id="_x3C_Slice_x3E_" x="0.95" y="15.478" fill="none" width="137" height="106.043"/>
</svg>
