<?xml version="1.0" encoding="utf-8"?>
<!-- Generator: Adobe Illustrator 16.0.3, SVG Export Plug-In . SVG Version: 6.00 Build 0)  -->
<!DOCTYPE svg PUBLIC "-//W3C//DTD SVG 1.1//EN" "http://www.w3.org/Graphics/SVG/1.1/DTD/svg11.dtd">
<svg version="1.1" id="Layer_1" xmlns="http://www.w3.org/2000/svg" xmlns:xlink="http://www.w3.org/1999/xlink" x="0px" y="0px"
	 width="612px" height="792px" viewBox="0 0 612 792" enable-background="new 0 0 612 792" xml:space="preserve">
<polygon id="polygon29" fill="#079948" stroke="#0F79AC" stroke-width="1.7008" stroke-linejoin="round" stroke-miterlimit="3.8637" points="
	266.78,348.569 266.262,348.57 263.94,345.73 263.936,344.801 265.04,345.67 "/>
<polygon id="polygon33" fill="#079948" stroke="#0F79AC" stroke-width="1.7008" stroke-linejoin="round" stroke-miterlimit="3.8637" points="
	269.448,430.508 269.444,429.404 270.948,429.982 270.717,430.447 "/>
<polygon id="polygon35" fill="#079948" stroke="#0F79AC" stroke-width="1.7008" stroke-linejoin="round" stroke-miterlimit="3.8637" points="
	236.434,332.34 235.678,331.355 236.6,330.365 237.93,330.245 239.84,330.935 241.686,330.058 243.485,330.982 244.807,329.758 
	247.872,329.458 249.846,331.542 252.045,332.349 253.553,333.622 255.174,334.199 256.393,336.053 258.077,337.268 
	261.151,340.454 262.768,341.146 263.237,342.422 263.237,342.459 263.186,345.558 265.278,348.805 266.262,349.325 
	266.612,350.137 268.122,352.688 270.559,355.296 271.608,358.139 274.62,362.139 275.604,362.833 276.53,362.889 281.112,362.572 
	281.729,362.529 284.096,361.479 286.981,359.499 290.098,359.608 292.004,358.734 294.141,358.555 295.934,358.377 
	297.375,357.678 300.202,354.595 302.565,353.314 305.165,352.497 307.248,352.9 308.977,351.039 311.057,350.339 313.252,350.51 
	314.76,351.844 316.896,351.667 319.553,350.618 320.648,350.675 322.502,352.473 325.68,351.947 325.896,352.102 326.895,352.817 
	327.24,352.7 328.859,352.466 331.289,353.567 333.195,354.379 334.703,356.759 336.09,357.57 338.115,360.763 339.215,361.342 
	342.566,364.186 344.943,367.495 347.656,369.468 348.932,371.791 350.027,372.022 353.203,371.266 354.361,372.428 
	356.268,372.659 357.367,374.052 358.467,377.769 359.389,378.292 361.18,380.498 361.883,380.788 362.164,380.904 363.49,380.904 
	365.455,380.207 367.189,380.266 368.285,381.02 371.057,382.008 374.408,385.086 375.422,385.276 380.586,386.25 383.359,387.121 
	387.227,389.33 392.365,395.663 391.959,397.695 391.785,398.684 392.131,400.832 391.209,404.838 391.439,405.943 390.574,408.266 
	390.863,409.484 389.709,411.169 386.881,415.291 385.496,416.451 384.559,416.795 382.494,417.554 381.109,418.482 
	378.283,422.257 377.021,424.324 376.898,424.521 375.803,425.275 372.113,426.379 370.959,426.379 369.691,425.391 
	368.998,425.391 367.557,426.379 365.135,428.006 363.289,428.18 360.291,430.271 358.906,430.619 357.58,432.014 357.219,432.049 
	356.369,432.129 355.734,433.06 354.93,433.293 353.543,431.957 352.332,431.725 350.082,432.016 349.102,432.714 347.43,432.482 
	346.391,432.715 344.314,431.381 341.605,431.498 338.721,432.197 335.895,433.361 332.381,435.629 328.693,437.084 328.24,437.35 
	326.098,438.598 323.91,438.89 322.527,439.879 320.738,440.346 318.666,441.916 317.225,442.383 314.518,442.444 311.746,441.983 
	309.674,442.16 308.346,442.859 307.482,443.326 305.809,442.979 304.487,443.679 302.641,443.797 300.049,444.73 298.665,444.85 
	296.989,443.75 292.375,443.699 291.223,443.006 290.012,442.892 289.434,442.08 289.604,440.859 288.735,439.177 286.083,439.531 
	284.752,438.779 282.903,436.053 283.059,435.281 283.299,434.077 283.008,432.801 281.674,430.131 280.401,428.799 
	282.071,426.529 282.586,425.25 282.805,421.882 281.989,417.876 282.327,414.855 282.096,414.217 281.217,408.991 278.95,403.362 
	278.131,399.474 278.243,398.486 278.297,395.93 277.77,393.725 276.321,391.695 273.834,390.075 270.829,388.92 269.499,388.75 
	267.307,389.453 266.268,389.92 262.413,393.414 261.258,393.824 260.393,393.652 254.489,389.836 250.331,389.15 248.307,388.344 
	244.776,385.625 242.87,384.934 239.75,385.234 238.995,383.844 236.846,380.191 235.512,378.977 233.893,378.227 233.368,377.241 
	231.858,374.923 228.149,371.625 226.87,369.597 226.163,365.709 225.286,363.796 225.395,361.705 224.168,358.806 223.417,358.169 
	222.659,356.604 222.479,355.037 223.106,353.583 223.877,349.745 223.899,349.631 225.672,344.63 227.569,342.185 228.372,340.962 
	229.799,336.137 230.895,334.972 231.991,334.736 233.45,335.511 "/>
<polygon id="polygon37" fill="#079948" stroke="#0F79AC" stroke-width="1.7008" stroke-linejoin="round" stroke-miterlimit="3.8637" points="
	248.02,438.524 251.014,437.703 253.956,437.635 256.731,439.196 257.424,440.065 258.18,441.457 259.68,442.672 260.375,443.773 
	259.924,446.331 258.036,450.866 257.352,452.901 257.356,454.354 256.897,455.167 258.108,455.28 259.604,454.348 260.18,454.404 
	260.993,455.447 262.141,455.096 262.204,455.908 261.745,456.955 260.018,458.586 259.219,459.924 258.411,460.334 
	256.915,460.395 254.952,459.82 254.262,460.287 253.051,460.232 250.809,461.4 248.561,461.697 247.407,460.829 246.649,459.031 
	245.438,458.338 244.116,460.084 242.5,459.509 241.063,459.63 236.229,462.26 235.422,461.914 234.665,459.883 231.565,462.914 
	230.297,463.383 228.682,463.099 226.202,461.888 225.792,460.03 223.188,458.297 221.971,456.27 222.083,455.572 224.262,453.356 
	225.758,452.48 227.825,449.976 229.782,449.387 231.223,448.918 233.241,449.026 235.022,447.627 236.573,446.17 238.014,445.584 
	241.979,442.668 243.586,440.688 245.317,440.508 "/>
<rect id="_x3C_Slice_x3E_" x="199" y="315" fill="none" width="208" height="161"/>
</svg>
