<?xml version="1.0" encoding="utf-8"?>
<!-- Generator: Adobe Illustrator 16.0.3, SVG Export Plug-In . SVG Version: 6.00 Build 0)  -->
<!DOCTYPE svg PUBLIC "-//W3C//DTD SVG 1.1//EN" "http://www.w3.org/Graphics/SVG/1.1/DTD/svg11.dtd">
<svg version="1.1" id="Layer_1" xmlns="http://www.w3.org/2000/svg" xmlns:xlink="http://www.w3.org/1999/xlink" x="0px" y="0px"
	 width="137px" height="137px" viewBox="0 0 137 137" enable-background="new 0 0 137 137" xml:space="preserve">
<polygon id="polygon27" fill="#079948" stroke="#0F79AC" stroke-width="1.7008" stroke-linejoin="round" stroke-miterlimit="3.8637" points="
	36.129,53.59 38.205,54.416 39.344,53.848 42.504,53.829 44.196,54.377 48.061,54.409 50.405,54.45 57.932,56.92 62.502,56.39 
	69.43,58.195 72.696,58.177 73.777,56.83 74.234,55.21 75.166,51.9 76.733,49.599 77.929,49.704 79.846,51.148 81.883,55.834 
	82.331,57.901 83.321,59.461 85.613,60.792 86.81,60.45 87.47,61.062 88.339,61.226 89.695,60.659 90.517,61.438 91.77,61.487 
	92.482,62.267 94.335,62.313 94.761,60.69 97.274,62.635 98.684,61.677 100.542,62.843 103.319,62.885 104.892,61.703 
	108.433,61.966 109.684,61.961 112.395,60.046 114.207,59.636 114.411,59.59 116.918,60.53 117.243,60.697 118.764,59.571 
	124.811,59.658 127.583,59.366 128.949,59.92 129.551,60.813 128.634,62.663 131.744,64.216 134.952,63.085 135.659,63.809 
	134.964,66.217 129.174,74.237 124.619,78.617 122.34,80.082 120.392,81.878 118.327,82.95 117.19,83.962 114.692,85.371 
	113.771,85.879 111.592,85.608 110.888,86.171 110.072,86.23 108.88,87.523 107.904,87.694 107.414,88.313 107.036,88.705 
	106.114,88.653 104.214,89.78 104.424,88.605 102.956,88.333 101.381,88.787 100.674,89.519 99.589,89.971 97.304,89.926 
	95.619,89.822 94.308,88.599 90.058,87.78 81.344,86.148 76.112,84.388 76.004,84.612 71.697,83.069 68.914,81.632 65.096,80.423 
	63.022,78.868 60.512,78.212 57.949,77.222 52.327,76.881 52.069,76.865 51.636,77.036 49.563,76.321 48.586,77.055 42.769,77.93 
	38.587,79.412 36.357,79.202 34.834,79.604 34.071,79.44 32.111,79.008 31.023,79.406 27.327,79.654 18.298,80.389 10.73,79.828 
	4.942,79.168 3.813,79.04 2.83,78.543 1.843,77.601 1.944,76.705 3.183,74.851 3.775,73.895 4.24,70.76 4.614,69.693 5.75,68.847 
	6.122,67.669 6.604,66.436 9.135,62.894 10.55,62.66 11.632,61.757 14.12,59.614 15.142,57.873 15.518,57.143 15.667,55.353 
	15.599,52.636 15.592,52.277 14.652,50.717 13.341,49.776 13.171,48.883 13.707,47.873 14.524,47.755 16.545,48.691 21.563,49.55 
	23.681,48.977 26.407,49.629 28.276,51.853 29.259,52.462 35.968,53.312 "/>
</svg>
