<?xml version="1.0" encoding="utf-8"?>
<!-- Generator: Adobe Illustrator 16.0.3, SVG Export Plug-In . SVG Version: 6.00 Build 0)  -->
<!DOCTYPE svg PUBLIC "-//W3C//DTD SVG 1.1//EN" "http://www.w3.org/Graphics/SVG/1.1/DTD/svg11.dtd">
<svg version="1.1" id="Layer_1" xmlns="http://www.w3.org/2000/svg" xmlns:xlink="http://www.w3.org/1999/xlink" x="0px" y="0px"
	 width="612px" height="792px" viewBox="0 0 612 792" enable-background="new 0 0 612 792" xml:space="preserve">
<polygon id="polygon27" fill="#179948" stroke="#0F79AC" stroke-width="1.7008" stroke-linejoin="round" stroke-miterlimit="3.8637" points="
	272.887,380.772 275.094,381.629 276.305,381.04 279.665,381.02 281.463,381.589 285.571,381.622 288.063,381.665 296.065,384.23 
	300.922,383.68 308.287,385.554 311.758,385.535 312.908,384.136 313.395,382.455 314.385,379.017 316.051,376.628 317.322,376.737 
	319.359,378.236 321.525,383.103 322.002,385.249 323.055,386.869 325.49,388.25 326.762,387.896 327.463,388.53 328.389,388.7 
	329.83,388.112 330.703,388.921 332.035,388.972 332.793,389.781 334.762,389.83 335.215,388.144 337.887,390.164 339.385,389.169 
	341.361,390.38 344.313,390.424 345.984,389.196 349.748,389.469 351.078,389.464 353.961,387.476 355.887,387.05 356.104,387.002 
	358.77,387.979 359.115,388.151 360.73,386.982 367.158,387.072 370.105,386.77 371.559,387.345 372.197,388.272 371.223,390.192 
	374.529,391.806 377.939,390.631 378.691,391.383 377.953,393.883 371.797,402.211 366.955,406.759 364.533,408.279 
	362.461,410.145 360.266,411.258 359.059,412.309 356.402,413.771 355.422,414.299 353.107,414.018 352.357,414.602 
	351.492,414.664 350.225,416.006 349.186,416.184 348.666,416.825 348.264,417.233 347.283,417.18 345.264,418.35 345.488,417.13 
	343.928,416.847 342.252,417.318 341.502,418.078 340.348,418.547 337.918,418.501 336.127,418.394 334.732,417.123 
	330.215,416.273 320.953,414.579 315.391,412.75 315.275,412.983 310.697,411.382 307.738,409.889 303.68,408.634 301.475,407.02 
	298.807,406.338 296.083,405.31 290.106,404.956 289.833,404.939 289.372,405.117 287.168,404.375 286.129,405.137 279.946,406.045 
	275.5,407.584 273.129,407.366 271.51,407.783 270.7,407.613 268.616,407.164 267.459,407.578 263.53,407.836 253.932,408.598 
	245.887,408.016 239.735,407.331 238.534,407.197 237.489,406.682 236.44,405.703 236.547,404.773 237.864,402.848 238.495,401.855 
	238.989,398.6 239.385,397.493 240.592,396.614 240.989,395.391 241.5,394.11 244.192,390.432 245.696,390.189 246.846,389.252 
	249.491,387.027 250.577,385.219 250.977,384.461 251.135,382.602 251.063,379.781 251.055,379.409 250.057,377.79 248.663,376.813 
	248.483,375.885 249.051,374.835 249.92,374.713 252.069,375.685 257.403,376.578 259.655,375.982 262.553,376.659 264.54,378.968 
	265.584,379.601 272.715,380.483 "/>
<rect id="_x3C_Slice_x3E_" x="227" y="362" fill="none" width="165" height="70"/>
<polyline id="polyline41" fill="none" stroke="#656565" stroke-width="1.8425" stroke-linejoin="round" stroke-miterlimit="3.8637" points="
	329.4,388.417 328.109,391.448 329.018,391.335 330.715,393.298 332.521,395.03 333.994,395.149 332.975,395.839 332.975,396.415 
	333.197,396.76 333.313,397.107 332.971,397.566 332.738,398.719 332.854,399.295 329.338,399.862 327.869,399.514 326.172,397.435 
	324.029,393.513 323.35,393.281 323.24,392.245 321.877,393.738 320.971,393.966 319.838,393.388 318.365,392.462 317.914,392.462 
	316.783,391.307 316.443,391.076 316.33,390.154 315.768,388.655 313.502,387.844 309.652,387.951 308.859,388.295 307.613,387.717 
	307.613,387.372 306.032,386.792 306.01,385.106 "/>
</svg>
