<?xml version="1.0" encoding="utf-8"?>
<!-- Generator: Adobe Illustrator 16.0.3, SVG Export Plug-In . SVG Version: 6.00 Build 0)  -->
<!DOCTYPE svg PUBLIC "-//W3C//DTD SVG 1.1//EN" "http://www.w3.org/Graphics/SVG/1.1/DTD/svg11.dtd">
<svg version="1.1" id="Layer_1" xmlns="http://www.w3.org/2000/svg" xmlns:xlink="http://www.w3.org/1999/xlink" x="0px" y="0px"
	 width="137px" height="137px" viewBox="0 0 137 137" enable-background="new 0 0 137 137" xml:space="preserve">
<polygon id="polygon13" fill="#1B9948" stroke="#147AAD" stroke-width="1.7008" stroke-linejoin="round" stroke-miterlimit="3.8637" points="
	51.901,48.718 56.505,46.957 58.909,44.84 61.691,41.616 73.751,37.476 79.944,33.894 88.375,21.062 89.415,13.351 91.336,8.088 
	100.482,2.102 106.168,5.672 108.623,5.338 110.588,4.257 112.804,3.043 120.277,6.982 121.986,9.685 122.621,13.377 
	121.368,18.347 116.664,21.479 112.035,27.767 108.583,37.457 106.306,50.689 107.378,55.468 111.146,64.438 111.161,64.955 
	111.222,67.456 105.865,71.976 101.236,72.5 99.764,73.77 95.932,73.176 92.462,76.419 87.399,76.128 84.566,77.432 81.966,77.494 
	79.522,77.829 76.704,79.819 70.027,80.396 66.125,82.687 61.463,87.329 51.614,104.864 45.123,116.425 44.328,122.896 
	41.399,126.123 39.021,134.693 37.101,134.057 32.75,134.851 29.383,131.226 27.317,130.454 23.646,130.958 22.096,128.938 
	22.434,126.045 20.429,122.526 17.933,120.668 14.86,112.783 15.514,108.947 16.173,105.063 15.648,100.546 14.378,98.93 
	21.063,87.916 22.249,80.889 25.871,72.835 36.288,63.244 47.703,50.193 "/>
</svg>
