<?xml version="1.0" encoding="utf-8"?>
<!-- Generator: Adobe Illustrator 16.0.3, SVG Export Plug-In . SVG Version: 6.00 Build 0)  -->
<!DOCTYPE svg PUBLIC "-//W3C//DTD SVG 1.1//EN" "http://www.w3.org/Graphics/SVG/1.1/DTD/svg11.dtd">
<svg version="1.1" id="Layer_1" xmlns="http://www.w3.org/2000/svg" xmlns:xlink="http://www.w3.org/1999/xlink" x="0px" y="0px"
	 width="612px" height="792px" viewBox="0 0 612 792" enable-background="new 0 0 612 792" xml:space="preserve">
<polygon id="polygon9" fill="#169948" stroke="#0F79AC" stroke-width="1.7008" stroke-linejoin="round" stroke-miterlimit="3.8637" points="
	320.406,368.638 318.893,368.675 318.236,367.994 318.708,365.951 319.779,366.854 320.475,366.721 321.091,365.719 321.56,365.824 
	321.808,366.515 321.48,367.394 "/>
<polygon id="polygon13" fill="#169948" stroke="#0F79AC" stroke-width="1.7008" stroke-linejoin="round" stroke-miterlimit="3.8637" points="
	300.239,390.897 302.2,390.152 303.224,389.257 304.409,387.893 309.546,386.142 312.184,384.627 315.774,379.199 316.218,375.938 
	317.036,373.712 320.932,371.18 323.354,372.69 324.399,372.549 325.236,372.092 326.18,371.578 329.363,373.244 330.091,374.387 
	330.361,375.949 329.828,378.051 327.824,379.376 325.853,382.035 324.382,386.134 323.412,391.731 323.869,393.752 
	325.474,397.546 325.48,397.765 325.506,398.822 323.225,400.734 321.253,400.956 320.626,401.493 318.993,401.242 317.516,402.613 
	315.359,402.49 314.152,403.042 313.045,403.068 312.004,403.21 310.804,404.052 307.96,404.296 306.298,405.265 304.312,407.229 
	300.117,414.645 297.352,419.534 297.013,422.271 295.766,423.637 294.753,427.262 293.935,426.992 292.082,427.328 
	290.648,425.795 289.768,425.469 288.204,425.682 287.544,424.827 287.688,423.604 286.834,422.115 285.771,421.329 
	284.462,417.994 284.74,416.372 285.021,414.729 284.798,412.818 284.257,412.135 287.104,407.477 287.609,404.504 289.152,401.098 
	293.589,397.041 298.451,391.521 "/>
<rect id="_x3C_Slice_x3E_" x="256" y="352" fill="none" width="94" height="87"/>
</svg>
