<?xml version="1.0" encoding="utf-8"?>
<!-- Generator: Adobe Illustrator 16.0.3, SVG Export Plug-In . SVG Version: 6.00 Build 0)  -->
<!DOCTYPE svg PUBLIC "-//W3C//DTD SVG 1.1//EN" "http://www.w3.org/Graphics/SVG/1.1/DTD/svg11.dtd">
<svg version="1.1" id="Layer_1" xmlns="http://www.w3.org/2000/svg" xmlns:xlink="http://www.w3.org/1999/xlink" x="0px" y="0px"
	 width="612px" height="792px" viewBox="0 0 612 792" enable-background="new 0 0 612 792" xml:space="preserve">
<polygon id="polygon17" fill="#179948" stroke="#0F79AC" stroke-width="1.7008" stroke-linejoin="round" stroke-miterlimit="3.8637" points="
	307.16,429.011 306.515,428.554 306.623,427.913 308.104,425.632 309.322,425.908 310.029,426.771 308.256,428.766 "/>
<polygon id="polygon19" fill="#179948" stroke="#0F79AC" stroke-width="1.7008" stroke-linejoin="round" stroke-miterlimit="3.8637" points="
	379.732,437.085 378.795,436.223 379.018,435.233 379.829,435.109 380.532,436.206 380.309,436.905 "/>
<polygon id="polygon21" fill="#179948" stroke="#0F79AC" stroke-width="1.7008" stroke-linejoin="round" stroke-miterlimit="3.8637" points="
	321.092,441.398 320.623,440.997 321.08,440.469 321.488,440.755 "/>
<polygon id="polygon23" fill="#179948" stroke="#0F79AC" stroke-width="1.7008" stroke-linejoin="round" stroke-miterlimit="3.8637" points="
	329.053,443.693 325.69,443.496 325.854,442.508 325.082,440.891 325.247,440.25 326.462,440.004 327.922,440.918 329.27,442.297 
	329.342,443.516 "/>
<polygon id="polygon25" fill="#179948" stroke="#0F79AC" stroke-width="1.7008" stroke-linejoin="round" stroke-miterlimit="3.8637" points="
	310.221,343.512 311.709,346.456 313.418,348.701 313.482,349.396 315.494,352.452 316.207,353.954 317.786,354.865 
	318.511,357.528 317.609,359.802 319.091,362.457 320.688,365.109 322.331,366.775 326.758,373.113 327.926,373.914 
	328.463,375.185 327.965,377.455 328.268,378.497 329.777,378.712 330.633,377.252 332.381,377.814 334.947,379.296 335.538,380.16 
	335.372,380.917 335.956,381.085 337.877,386.987 337.203,389.142 334.856,391.897 334.157,391.788 333.938,392.719 
	335.004,394.797 334.604,395.325 334.961,396.134 336.129,396.992 336.432,398.266 335.938,400.594 336.299,401.983 
	337.124,403.078 338.107,402.777 338.227,403.066 339.737,403.457 340.559,404.203 341.95,404.363 343.785,407.654 343.154,408.416 
	344.916,410.719 346.614,412.037 347.414,411.216 347.941,411.501 348.531,412.541 348.78,413.988 349.779,415.373 351.231,415.764 
	352.796,415.516 354.008,414.924 354.98,408.41 352.479,407.448 351.361,405.949 351.523,404.961 352.508,404.777 353.823,403.196 
	354.926,403.243 358.596,404.773 360.102,404.527 362.87,403.049 364.031,403.269 364.326,403.963 363.188,405.832 361.403,407.011 
	361.094,410.904 359.493,413.068 359.414,413.648 359.33,414.23 360.869,417.178 362.218,418.499 364.601,419.289 365.826,420.147 
	367.646,422.395 367.945,423.088 367.221,426.114 368.313,430.98 369.614,433.64 371.604,435.652 373.006,436.684 375.734,437.297 
	379.299,440.281 381.383,440.03 382.259,440.951 382.266,441.707 380.551,443.813 376.261,447.857 373.893,450.089 372.686,450.797 
	371.297,450.928 370.512,453.432 368.078,453.571 367.322,453.114 367.02,451.723 367.235,450.443 366.82,449.344 366.061,448.539 
	364.55,448.147 357.554,449.32 353.51,450.348 351.726,451.354 348.226,454.641 347.072,454.885 345.85,454.374 341.856,454.59 
	340.746,453.557 340.134,450.428 338.844,449.222 336.983,448.428 336.158,447.043 335.159,445.892 332.719,445.396 
	331.436,444.538 330.787,443.268 330.408,440.659 329.648,440.086 328.314,439.927 326.916,439.012 325.006,439.207 324.068,438.23 
	324,437.359 324.508,436.367 323.867,435.735 319.033,438.865 316.684,440.982 315.753,440.818 314.467,439.729 311.338,439.531 
	308.663,438.807 307.607,437.715 306.655,435.404 306.702,435.137 307.034,433.367 306.555,431.979 307.063,430.754 
	308.904,429.805 312.275,430.404 312.557,429.82 311.965,428.84 312.477,427.731 313.89,424.813 313.648,424.003 312.779,424.129 
	309.049,422.021 307.593,421.457 306.378,421.82 306.154,422.461 306.75,423.674 306.071,425.365 305.084,425.027 303.08,422.264 
	302.435,421.574 301.797,421.465 301.015,424.145 301.67,425.473 303.368,427.079 304.529,427.124 305.477,428.797 305.332,431.586 
	304.702,431.942 301.548,429.829 301.711,428.898 301.299,428.496 299.393,429.099 298.697,428.934 297.926,427.49 298.195,425.919 
	297.896,424.994 296.912,425.121 296.142,423.736 294.019,425.328 294.025,425.875 294.037,426.955 293.471,428.121 
	294.296,429.042 299.176,430.32 303.375,432.537 304.781,433.799 305.498,435.766 304.773,438.212 303.289,439.797 300.867,440.869 
	293.81,441.822 288.73,443.274 275.604,444.941 273.51,444.387 272.223,443.299 271.217,441.801 269.635,435.781 269.227,435.611 
	268.571,433.994 268.262,432.371 266.502,426.297 264.732,423.821 262.732,421.466 257.351,417.816 256.406,416.551 
	256.014,413.072 255.35,411.106 252.621,406.321 249.803,403.629 248.174,403.243 247.392,401.162 245.625,398.92 244.572,398.469 
	244.032,397.082 244.508,393.535 244.429,387.498 243.877,385.415 242.564,382.702 240.68,380.462 237.107,377.232 236.567,376.742 
	232.584,374.124 232.927,373.539 236.557,373.156 241.098,372.678 246.386,372.392 247.164,372.35 248.174,372.296 249.857,372.303 
	252.34,372.312 258.608,372.335 258.793,372.337 263.085,372.108 265.976,371.435 267.551,372.053 268.596,371.925 270.377,370.51 
	273.826,367.971 274.15,366.167 280.754,360.398 283.436,356.418 283.688,353.396 290.23,347.049 292.177,344.879 294.938,342.641 
	297.367,341.742 298.574,340.916 301.646,340.358 302.969,339.24 306.519,339.838 "/>
</svg>
