<?xml version="1.0" encoding="utf-8"?>
<!-- Generator: Adobe Illustrator 16.0.3, SVG Export Plug-In . SVG Version: 6.00 Build 0)  -->
<!DOCTYPE svg PUBLIC "-//W3C//DTD SVG 1.1//EN" "http://www.w3.org/Graphics/SVG/1.1/DTD/svg11.dtd">
<svg version="1.1" id="Layer_1" xmlns="http://www.w3.org/2000/svg" xmlns:xlink="http://www.w3.org/1999/xlink" x="0px" y="0px"
	 width="137px" height="137px" viewBox="0 0 137 137" enable-background="new 0 0 137 137" xml:space="preserve">
<polygon id="polygon25" fill="#1B9948" stroke="#147AAD" stroke-width="1.7008" stroke-linejoin="round" stroke-miterlimit="3.8637" points="
	70.626,20.407 71.944,23.082 73.459,25.122 73.516,25.753 75.298,28.53 75.931,29.895 77.328,30.722 77.971,33.142 77.173,35.208 
	78.485,37.62 79.899,40.03 81.355,41.543 85.277,47.302 86.313,48.03 86.789,49.185 86.347,51.247 86.615,52.194 87.953,52.389 
	88.711,51.063 90.26,51.573 92.533,52.92 93.057,53.705 92.91,54.393 93.427,54.545 95.129,59.908 94.532,61.866 92.453,64.369 
	91.834,64.27 91.639,65.116 92.584,67.004 92.229,67.484 92.546,68.219 93.579,68.999 93.848,70.155 93.41,72.271 93.73,73.533 
	94.462,74.528 95.333,74.255 95.438,74.518 96.777,74.872 97.505,75.551 98.737,75.696 100.363,78.687 99.805,79.378 
	101.365,81.471 102.87,82.668 103.578,81.922 104.046,82.182 104.567,83.126 104.789,84.441 105.675,85.699 106.961,86.055 
	108.347,85.829 109.421,85.291 110.282,79.373 108.065,78.499 107.076,77.137 107.219,76.239 108.092,76.072 109.257,74.636 
	110.233,74.678 113.485,76.068 114.82,75.845 117.271,74.502 118.302,74.701 118.563,75.332 117.554,77.03 115.973,78.102 
	115.698,81.639 114.28,83.605 114.211,84.133 114.136,84.661 115.499,87.339 116.693,88.54 118.805,89.258 119.891,90.037 
	121.504,92.079 121.769,92.709 121.127,95.459 122.094,99.88 123.247,102.296 125.01,104.125 126.253,105.063 128.669,105.619 
	131.828,108.331 133.675,108.103 134.45,108.939 134.456,109.626 132.938,111.539 129.136,115.215 127.038,117.242 125.969,117.886 
	124.738,118.004 124.042,120.279 121.887,120.406 121.217,119.991 120.948,118.727 121.14,117.564 120.772,116.565 120.099,115.834 
	118.761,115.479 112.563,116.544 108.979,117.478 107.397,118.391 104.297,121.378 103.275,121.6 102.191,121.136 98.654,121.332 
	97.671,120.393 97.128,117.55 95.985,116.454 94.337,115.732 93.606,114.475 92.721,113.429 90.558,112.979 89.423,112.198 
	88.847,111.044 88.512,108.674 87.839,108.153 86.657,108.009 85.418,107.178 83.725,107.354 82.895,106.468 82.835,105.676 
	83.284,104.774 82.717,104.2 78.434,107.044 76.352,108.968 75.528,108.818 74.388,107.828 71.616,107.649 69.246,106.991 
	68.311,105.999 67.467,103.899 67.509,103.656 67.804,102.049 67.377,100.787 67.829,99.675 69.46,98.812 72.447,99.356 
	72.696,98.826 72.172,97.936 72.625,96.928 73.877,94.276 73.662,93.54 72.894,93.655 69.588,91.74 68.297,91.228 67.222,91.558 
	67.023,92.14 67.551,93.241 66.949,94.778 66.075,94.472 64.3,91.96 63.728,91.334 63.164,91.234 62.471,93.669 63.05,94.876 
	64.555,96.335 65.583,96.376 66.423,97.896 66.295,100.431 65.737,100.754 62.942,98.834 63.087,97.988 62.722,97.623 61.033,98.17 
	60.417,98.021 59.733,96.709 59.972,95.281 59.707,94.441 58.835,94.557 58.153,93.298 56.272,94.744 56.277,95.241 56.288,96.223 
	55.787,97.282 56.518,98.119 60.84,99.28 64.561,101.295 65.807,102.441 66.442,104.228 65.799,106.45 64.485,107.891 
	62.34,108.865 56.087,109.731 51.586,111.051 39.957,112.565 38.102,112.061 36.961,111.072 36.07,109.712 34.668,104.242 
	34.307,104.088 33.726,102.618 33.452,101.144 31.893,95.625 30.324,93.375 28.552,91.235 23.786,87.919 22.948,86.77 
	22.601,83.609 22.012,81.822 19.594,77.475 17.098,75.028 15.655,74.678 14.962,72.787 13.396,70.75 12.463,70.34 11.985,69.08 
	12.407,65.857 12.337,60.372 11.848,58.479 10.684,56.015 9.015,53.979 5.849,51.044 5.371,50.6 1.842,48.221 2.146,47.689 
	5.362,47.341 9.386,46.907 14.07,46.647 14.76,46.609 15.655,46.56 17.146,46.566 19.346,46.574 24.898,46.595 25.063,46.597 
	28.865,46.389 31.427,45.777 32.822,46.339 33.749,46.223 35.326,44.937 38.382,42.63 38.668,40.991 44.52,35.749 46.896,32.133 
	47.119,29.387 52.915,23.62 54.64,21.649 57.086,19.615 59.239,18.799 60.308,18.048 63.03,17.541 64.201,16.525 67.346,17.068 "/>
</svg>
